<mxfile host="app.diagrams.net" modified="2023-04-17T03:59:02.820Z" agent="Mozilla/5.0 (Windows NT 10.0; Win64; x64) AppleWebKit/537.36 (KHTML, like Gecko) Chrome/111.0.0.0 Safari/537.36" etag="Se8O8yRN3A8ka4fTXQxf" version="21.1.8" type="github">
  <diagram name="Page-1" id="KBtSHqnQXuvCUiZRbfFS">
    <mxGraphModel dx="1050" dy="549" grid="0" gridSize="10" guides="1" tooltips="1" connect="1" arrows="1" fold="1" page="1" pageScale="1" pageWidth="850" pageHeight="1100" math="0" shadow="0">
      <root>
        <mxCell id="0" />
        <mxCell id="1" parent="0" />
        <mxCell id="w9Y-D2jJUCCENfi8wOOg-1" value="&lt;font style=&quot;font-size: 18px;&quot;&gt;存储日志的哈希表队列&lt;/font&gt;" style="text;html=1;strokeColor=none;fillColor=none;align=center;verticalAlign=middle;whiteSpace=wrap;rounded=0;" vertex="1" parent="1">
          <mxGeometry x="10" y="80" width="190" height="40" as="geometry" />
        </mxCell>
        <mxCell id="w9Y-D2jJUCCENfi8wOOg-2" value="&lt;font style=&quot;font-size: 18px;&quot;&gt;可清理的哈希表队列&lt;/font&gt;" style="text;html=1;strokeColor=none;fillColor=none;align=center;verticalAlign=middle;whiteSpace=wrap;rounded=0;" vertex="1" parent="1">
          <mxGeometry x="20" y="160" width="180" height="40" as="geometry" />
        </mxCell>
        <mxCell id="w9Y-D2jJUCCENfi8wOOg-3" value="&lt;font style=&quot;font-size: 18px;&quot;&gt;已清理的哈希表队列&lt;/font&gt;" style="text;html=1;strokeColor=none;fillColor=none;align=center;verticalAlign=middle;whiteSpace=wrap;rounded=0;" vertex="1" parent="1">
          <mxGeometry x="30" y="240" width="170" height="40" as="geometry" />
        </mxCell>
        <mxCell id="w9Y-D2jJUCCENfi8wOOg-9" value="" style="edgeStyle=orthogonalEdgeStyle;rounded=0;orthogonalLoop=1;jettySize=auto;html=1;" edge="1" parent="1" source="w9Y-D2jJUCCENfi8wOOg-5" target="w9Y-D2jJUCCENfi8wOOg-6">
          <mxGeometry relative="1" as="geometry" />
        </mxCell>
        <mxCell id="w9Y-D2jJUCCENfi8wOOg-5" value="&lt;font style=&quot;font-size: 14px;&quot;&gt;hash table&lt;/font&gt;" style="rounded=0;whiteSpace=wrap;html=1;fillColor=#ffe6cc;strokeColor=#d79b00;" vertex="1" parent="1">
          <mxGeometry x="362" y="60" width="70" height="59" as="geometry" />
        </mxCell>
        <mxCell id="w9Y-D2jJUCCENfi8wOOg-10" value="" style="edgeStyle=orthogonalEdgeStyle;rounded=0;orthogonalLoop=1;jettySize=auto;html=1;" edge="1" parent="1" source="w9Y-D2jJUCCENfi8wOOg-6" target="w9Y-D2jJUCCENfi8wOOg-7">
          <mxGeometry relative="1" as="geometry" />
        </mxCell>
        <mxCell id="w9Y-D2jJUCCENfi8wOOg-6" value="&lt;font style=&quot;font-size: 14px;&quot;&gt;hash table&lt;/font&gt;" style="rounded=0;whiteSpace=wrap;html=1;fillColor=#ffe6cc;strokeColor=#d79b00;" vertex="1" parent="1">
          <mxGeometry x="483" y="60" width="70" height="59" as="geometry" />
        </mxCell>
        <mxCell id="w9Y-D2jJUCCENfi8wOOg-7" value="&lt;font style=&quot;font-size: 14px;&quot;&gt;hash table&lt;/font&gt;" style="rounded=0;whiteSpace=wrap;html=1;fillColor=#ffe6cc;strokeColor=#d79b00;" vertex="1" parent="1">
          <mxGeometry x="604" y="60" width="70" height="59" as="geometry" />
        </mxCell>
        <mxCell id="w9Y-D2jJUCCENfi8wOOg-13" value="" style="edgeStyle=orthogonalEdgeStyle;rounded=0;orthogonalLoop=1;jettySize=auto;html=1;" edge="1" parent="1" source="w9Y-D2jJUCCENfi8wOOg-11" target="w9Y-D2jJUCCENfi8wOOg-5">
          <mxGeometry relative="1" as="geometry" />
        </mxCell>
        <mxCell id="w9Y-D2jJUCCENfi8wOOg-11" value="&lt;font style=&quot;font-size: 14px;&quot;&gt;hash table&lt;/font&gt;" style="rounded=0;whiteSpace=wrap;html=1;fillColor=#ffe6cc;strokeColor=#d79b00;" vertex="1" parent="1">
          <mxGeometry x="252" y="60" width="70" height="59" as="geometry" />
        </mxCell>
        <mxCell id="w9Y-D2jJUCCENfi8wOOg-19" value="" style="edgeStyle=orthogonalEdgeStyle;rounded=0;orthogonalLoop=1;jettySize=auto;html=1;" edge="1" parent="1" source="w9Y-D2jJUCCENfi8wOOg-15" target="w9Y-D2jJUCCENfi8wOOg-18">
          <mxGeometry relative="1" as="geometry" />
        </mxCell>
        <mxCell id="w9Y-D2jJUCCENfi8wOOg-15" value="&lt;font style=&quot;font-size: 14px;&quot;&gt;hash table&lt;/font&gt;" style="rounded=0;whiteSpace=wrap;html=1;fillColor=#ffe6cc;strokeColor=#d79b00;" vertex="1" parent="1">
          <mxGeometry x="360" y="148" width="70" height="59" as="geometry" />
        </mxCell>
        <mxCell id="w9Y-D2jJUCCENfi8wOOg-16" value="" style="edgeStyle=orthogonalEdgeStyle;rounded=0;orthogonalLoop=1;jettySize=auto;html=1;" edge="1" parent="1" source="w9Y-D2jJUCCENfi8wOOg-17" target="w9Y-D2jJUCCENfi8wOOg-15">
          <mxGeometry relative="1" as="geometry" />
        </mxCell>
        <mxCell id="w9Y-D2jJUCCENfi8wOOg-17" value="&lt;font style=&quot;font-size: 14px;&quot;&gt;hash table&lt;/font&gt;" style="rounded=0;whiteSpace=wrap;html=1;fillColor=#ffe6cc;strokeColor=#d79b00;" vertex="1" parent="1">
          <mxGeometry x="250" y="148" width="70" height="59" as="geometry" />
        </mxCell>
        <mxCell id="w9Y-D2jJUCCENfi8wOOg-18" value="&lt;font style=&quot;font-size: 14px;&quot;&gt;hash table&lt;/font&gt;" style="rounded=0;whiteSpace=wrap;html=1;fillColor=#ffe6cc;strokeColor=#d79b00;" vertex="1" parent="1">
          <mxGeometry x="483" y="148" width="70" height="59" as="geometry" />
        </mxCell>
        <mxCell id="w9Y-D2jJUCCENfi8wOOg-20" value="" style="edgeStyle=orthogonalEdgeStyle;rounded=0;orthogonalLoop=1;jettySize=auto;html=1;" edge="1" parent="1" source="w9Y-D2jJUCCENfi8wOOg-21" target="w9Y-D2jJUCCENfi8wOOg-24">
          <mxGeometry relative="1" as="geometry" />
        </mxCell>
        <mxCell id="w9Y-D2jJUCCENfi8wOOg-21" value="&lt;font style=&quot;font-size: 14px;&quot;&gt;hash table&lt;/font&gt;" style="rounded=0;whiteSpace=wrap;html=1;fillColor=#ffe6cc;strokeColor=#d79b00;" vertex="1" parent="1">
          <mxGeometry x="360" y="234" width="70" height="59" as="geometry" />
        </mxCell>
        <mxCell id="w9Y-D2jJUCCENfi8wOOg-22" value="" style="edgeStyle=orthogonalEdgeStyle;rounded=0;orthogonalLoop=1;jettySize=auto;html=1;" edge="1" parent="1" source="w9Y-D2jJUCCENfi8wOOg-23" target="w9Y-D2jJUCCENfi8wOOg-21">
          <mxGeometry relative="1" as="geometry" />
        </mxCell>
        <mxCell id="w9Y-D2jJUCCENfi8wOOg-23" value="&lt;font style=&quot;font-size: 14px;&quot;&gt;hash table&lt;/font&gt;" style="rounded=0;whiteSpace=wrap;html=1;fillColor=#ffe6cc;strokeColor=#d79b00;" vertex="1" parent="1">
          <mxGeometry x="250" y="234" width="70" height="59" as="geometry" />
        </mxCell>
        <mxCell id="w9Y-D2jJUCCENfi8wOOg-24" value="&lt;font style=&quot;font-size: 14px;&quot;&gt;hash table&lt;/font&gt;" style="rounded=0;whiteSpace=wrap;html=1;fillColor=#ffe6cc;strokeColor=#d79b00;" vertex="1" parent="1">
          <mxGeometry x="483" y="234" width="70" height="59" as="geometry" />
        </mxCell>
        <mxCell id="w9Y-D2jJUCCENfi8wOOg-25" value="日志解析线程" style="text;html=1;strokeColor=none;fillColor=none;align=center;verticalAlign=middle;whiteSpace=wrap;rounded=0;" vertex="1" parent="1">
          <mxGeometry x="242.5" y="25" width="85" height="30" as="geometry" />
        </mxCell>
        <mxCell id="w9Y-D2jJUCCENfi8wOOg-26" value="日志应用线程" style="text;html=1;strokeColor=none;fillColor=none;align=center;verticalAlign=middle;whiteSpace=wrap;rounded=0;" vertex="1" parent="1">
          <mxGeometry x="596.5" y="25" width="85" height="30" as="geometry" />
        </mxCell>
        <mxCell id="w9Y-D2jJUCCENfi8wOOg-28" value="" style="rounded=0;whiteSpace=wrap;html=1;fillColor=#b1ddf0;strokeColor=#10739e;" vertex="1" parent="1">
          <mxGeometry x="493" y="369" width="186" height="190" as="geometry" />
        </mxCell>
        <mxCell id="w9Y-D2jJUCCENfi8wOOg-29" value="" style="endArrow=none;html=1;rounded=0;exitX=0;exitY=0.25;exitDx=0;exitDy=0;entryX=1;entryY=0.25;entryDx=0;entryDy=0;" edge="1" parent="1" source="w9Y-D2jJUCCENfi8wOOg-28" target="w9Y-D2jJUCCENfi8wOOg-28">
          <mxGeometry width="50" height="50" relative="1" as="geometry">
            <mxPoint x="749" y="362" as="sourcePoint" />
            <mxPoint x="799" y="312" as="targetPoint" />
          </mxGeometry>
        </mxCell>
        <mxCell id="w9Y-D2jJUCCENfi8wOOg-31" value="" style="endArrow=none;html=1;rounded=0;exitX=0;exitY=0.75;exitDx=0;exitDy=0;entryX=1;entryY=0.75;entryDx=0;entryDy=0;" edge="1" parent="1" source="w9Y-D2jJUCCENfi8wOOg-28" target="w9Y-D2jJUCCENfi8wOOg-28">
          <mxGeometry width="50" height="50" relative="1" as="geometry">
            <mxPoint x="749" y="362" as="sourcePoint" />
            <mxPoint x="799" y="312" as="targetPoint" />
          </mxGeometry>
        </mxCell>
        <mxCell id="w9Y-D2jJUCCENfi8wOOg-33" value="redo 1" style="rounded=0;whiteSpace=wrap;html=1;fillColor=#fff2cc;strokeColor=#d6b656;" vertex="1" parent="1">
          <mxGeometry x="493" y="416" width="79" height="31" as="geometry" />
        </mxCell>
        <mxCell id="w9Y-D2jJUCCENfi8wOOg-34" value="redo 3" style="rounded=0;whiteSpace=wrap;html=1;fillColor=#d5e8d4;strokeColor=#82b366;" vertex="1" parent="1">
          <mxGeometry x="493" y="447" width="186" height="27" as="geometry" />
        </mxCell>
        <mxCell id="w9Y-D2jJUCCENfi8wOOg-35" value="redo 2" style="text;html=1;strokeColor=#6c8ebf;fillColor=#dae8fc;align=center;verticalAlign=middle;whiteSpace=wrap;rounded=0;" vertex="1" parent="1">
          <mxGeometry x="572" y="415" width="107" height="32" as="geometry" />
        </mxCell>
        <mxCell id="w9Y-D2jJUCCENfi8wOOg-36" value="redo 4" style="rounded=0;whiteSpace=wrap;html=1;fillColor=#e1d5e7;strokeColor=#9673a6;" vertex="1" parent="1">
          <mxGeometry x="493" y="474" width="120" height="39" as="geometry" />
        </mxCell>
        <mxCell id="w9Y-D2jJUCCENfi8wOOg-38" value="Log block header" style="rounded=0;whiteSpace=wrap;html=1;fillColor=#f5f5f5;strokeColor=#666666;fontColor=#333333;" vertex="1" parent="1">
          <mxGeometry x="493" y="369" width="186" height="47" as="geometry" />
        </mxCell>
        <mxCell id="w9Y-D2jJUCCENfi8wOOg-39" value="Log block tailer" style="rounded=0;whiteSpace=wrap;html=1;fillColor=#f8cecc;strokeColor=#b85450;" vertex="1" parent="1">
          <mxGeometry x="493" y="512" width="186" height="47" as="geometry" />
        </mxCell>
        <mxCell id="w9Y-D2jJUCCENfi8wOOg-40" value="" style="rounded=0;whiteSpace=wrap;html=1;fillColor=#fff2cc;strokeColor=#d6b656;" vertex="1" parent="1">
          <mxGeometry x="307" y="369" width="186" height="190" as="geometry" />
        </mxCell>
        <mxCell id="w9Y-D2jJUCCENfi8wOOg-41" value="" style="endArrow=none;html=1;rounded=0;exitX=0;exitY=0.25;exitDx=0;exitDy=0;entryX=1;entryY=0.25;entryDx=0;entryDy=0;" edge="1" parent="1" source="w9Y-D2jJUCCENfi8wOOg-40" target="w9Y-D2jJUCCENfi8wOOg-40">
          <mxGeometry width="50" height="50" relative="1" as="geometry">
            <mxPoint x="563" y="362" as="sourcePoint" />
            <mxPoint x="613" y="312" as="targetPoint" />
          </mxGeometry>
        </mxCell>
        <mxCell id="w9Y-D2jJUCCENfi8wOOg-42" value="" style="endArrow=none;html=1;rounded=0;exitX=0;exitY=0.75;exitDx=0;exitDy=0;entryX=1;entryY=0.75;entryDx=0;entryDy=0;" edge="1" parent="1" source="w9Y-D2jJUCCENfi8wOOg-40" target="w9Y-D2jJUCCENfi8wOOg-40">
          <mxGeometry width="50" height="50" relative="1" as="geometry">
            <mxPoint x="563" y="362" as="sourcePoint" />
            <mxPoint x="613" y="312" as="targetPoint" />
          </mxGeometry>
        </mxCell>
        <mxCell id="w9Y-D2jJUCCENfi8wOOg-47" value="Log block header" style="rounded=0;whiteSpace=wrap;html=1;fillColor=#f5f5f5;strokeColor=#666666;fontColor=#333333;" vertex="1" parent="1">
          <mxGeometry x="307" y="369" width="186" height="47" as="geometry" />
        </mxCell>
        <mxCell id="w9Y-D2jJUCCENfi8wOOg-48" value="Log block tailer" style="rounded=0;whiteSpace=wrap;html=1;fillColor=#f8cecc;strokeColor=#b85450;" vertex="1" parent="1">
          <mxGeometry x="307" y="512" width="186" height="47" as="geometry" />
        </mxCell>
        <mxCell id="w9Y-D2jJUCCENfi8wOOg-49" value="" style="rounded=0;whiteSpace=wrap;html=1;fillColor=#fff2cc;strokeColor=#d6b656;" vertex="1" parent="1">
          <mxGeometry x="121" y="369" width="186" height="190" as="geometry" />
        </mxCell>
        <mxCell id="w9Y-D2jJUCCENfi8wOOg-50" value="" style="endArrow=none;html=1;rounded=0;exitX=0;exitY=0.25;exitDx=0;exitDy=0;entryX=1;entryY=0.25;entryDx=0;entryDy=0;" edge="1" parent="1" source="w9Y-D2jJUCCENfi8wOOg-49" target="w9Y-D2jJUCCENfi8wOOg-49">
          <mxGeometry width="50" height="50" relative="1" as="geometry">
            <mxPoint x="377" y="362" as="sourcePoint" />
            <mxPoint x="427" y="312" as="targetPoint" />
          </mxGeometry>
        </mxCell>
        <mxCell id="w9Y-D2jJUCCENfi8wOOg-51" value="" style="endArrow=none;html=1;rounded=0;exitX=0;exitY=0.75;exitDx=0;exitDy=0;entryX=1;entryY=0.75;entryDx=0;entryDy=0;" edge="1" parent="1" source="w9Y-D2jJUCCENfi8wOOg-49" target="w9Y-D2jJUCCENfi8wOOg-49">
          <mxGeometry width="50" height="50" relative="1" as="geometry">
            <mxPoint x="377" y="362" as="sourcePoint" />
            <mxPoint x="427" y="312" as="targetPoint" />
          </mxGeometry>
        </mxCell>
        <mxCell id="w9Y-D2jJUCCENfi8wOOg-52" value="Log block header" style="rounded=0;whiteSpace=wrap;html=1;fillColor=#f5f5f5;strokeColor=#666666;fontColor=#333333;" vertex="1" parent="1">
          <mxGeometry x="121" y="369" width="186" height="47" as="geometry" />
        </mxCell>
        <mxCell id="w9Y-D2jJUCCENfi8wOOg-53" value="Log block tailer" style="rounded=0;whiteSpace=wrap;html=1;fillColor=#f8cecc;strokeColor=#b85450;" vertex="1" parent="1">
          <mxGeometry x="121" y="512" width="186" height="47" as="geometry" />
        </mxCell>
        <mxCell id="w9Y-D2jJUCCENfi8wOOg-54" value="&lt;font style=&quot;font-size: 17px;&quot;&gt;Log buffer 示意图&lt;/font&gt;" style="text;html=1;strokeColor=none;fillColor=none;align=center;verticalAlign=middle;whiteSpace=wrap;rounded=0;" vertex="1" parent="1">
          <mxGeometry x="311" y="594" width="178" height="30" as="geometry" />
        </mxCell>
      </root>
    </mxGraphModel>
  </diagram>
</mxfile>
